<?xml version="1.0" standalone="no"?>
<!DOCTYPE svg PUBLIC "-//W3C//DTD SVG 20010904//EN"
 "http://www.w3.org/TR/2001/REC-SVG-20010904/DTD/svg10.dtd">
<svg version="1.0" xmlns="http://www.w3.org/2000/svg"
 width="368.000000pt" height="368.000000pt" viewBox="0 0 368.000000 368.000000"
 preserveAspectRatio="xMidYMid meet">
<metadata>
Created by potrace 1.14, written by Peter Selinger 2001-2017
</metadata>
<g transform="translate(0.000000,368.000000) scale(0.100000,-0.100000)"
fill="#000000" stroke="none">
<path d="M2251 3643 c-90 -23 -149 -61 -259 -168 -79 -76 -119 -124 -151 -180
-41 -71 -44 -82 -44 -145 0 -37 8 -91 18 -119 15 -45 20 -51 37 -45 19 6 20 3
13 -27 -29 -131 -5 -221 71 -267 31 -19 44 -34 48 -56 27 -140 76 -268 132
-343 l24 -31 -44 -26 c-113 -66 -209 -191 -333 -433 -67 -131 -174 -331 -188
-351 -1 -1 -13 2 -27 7 -13 5 -62 12 -109 15 -46 4 -106 9 -134 11 -27 2 -86
7 -130 10 -44 3 -100 7 -125 9 -25 3 -85 8 -135 11 -49 4 -108 9 -130 11 -22
2 -76 6 -120 8 -44 3 -107 8 -140 11 -82 7 -153 13 -260 20 -50 4 -108 8 -131
10 -54 4 -99 -19 -118 -60 -20 -41 -20 -60 -1 -121 13 -43 173 -603 180 -629
1 -5 5 -17 8 -25 3 -8 17 -60 32 -115 14 -55 34 -118 43 -139 18 -43 77 -106
98 -106 8 0 27 -15 44 -33 17 -19 36 -34 43 -34 16 -1 126 -14 146 -18 9 -2
26 -4 39 -4 16 -1 21 -5 16 -13 -6 -9 -3 -9 9 0 9 8 20 11 25 8 8 -5 58 -14
107 -19 11 -2 26 -7 34 -11 10 -7 12 -6 6 4 -5 8 -4 11 2 7 12 -8 88 -20 116
-19 11 1 15 -4 10 -11 -4 -7 0 -6 10 2 9 7 17 9 17 4 0 -5 15 -9 33 -9 32 -1
113 -11 152 -18 11 -3 33 -5 48 -5 20 -1 26 -5 21 -13 -6 -10 -5 -10 7 -1 12
10 18 10 29 0 10 -10 11 -9 5 2 -6 10 -4 12 6 5 14 -9 25 -11 80 -13 21 -1 28
-5 23 -13 -5 -9 -2 -9 9 1 13 10 17 10 17 1 0 -10 3 -10 14 -1 11 10 17 8 25
-6 6 -10 11 -13 11 -6 0 15 23 11 46 -7 11 -9 15 -10 10 -3 -4 8 -2 13 6 13 8
0 20 -6 27 -13 11 -9 13 -9 7 1 -4 6 -2 12 3 12 6 0 11 -3 11 -7 0 -5 20 -9
45 -10 25 0 53 -7 62 -15 13 -10 15 -10 9 0 -6 10 0 11 26 6 51 -10 237 -10
231 0 -3 5 0 7 8 4 8 -3 20 2 28 9 9 9 24 12 40 8 17 -4 21 -3 12 3 -9 7 -10
12 -2 16 6 4 11 4 11 1 0 -4 7 1 16 10 9 9 23 14 31 11 8 -3 12 -2 9 3 -3 5
17 19 44 32 28 13 50 28 50 32 0 5 7 6 16 3 10 -4 13 -2 8 6 -5 8 -2 9 10 5 9
-4 15 -3 12 1 -3 5 22 23 55 41 32 18 59 29 59 25 0 -4 6 0 13 11 9 11 19 15
27 10 9 -6 11 -4 5 5 -6 10 -4 12 9 7 11 -5 15 -3 10 5 -5 8 -2 9 10 5 10 -4
15 -3 11 3 -3 6 -1 10 4 10 6 0 11 11 11 25 0 14 5 25 11 25 6 0 3 8 -8 17
-10 10 -14 15 -8 11 7 -4 15 -5 18 -1 4 3 7 1 7 -5 0 -8 7 -9 25 -2 16 6 26 6
31 -1 3 -6 23 -8 45 -5 21 3 39 2 39 -2 0 -4 29 -7 65 -7 36 0 65 2 65 5 0 8
64 5 78 -4 8 -5 12 -3 10 6 -2 7 4 13 12 14 8 0 27 4 41 8 14 4 34 9 45 11 10
2 19 4 19 5 0 2 36 10 58 12 9 1 17 7 17 13 0 5 5 3 10 -5 7 -12 10 -12 10 -1
0 7 6 11 14 8 7 -3 17 -2 22 3 5 4 29 11 54 14 25 4 62 10 82 15 24 6 40 5 48
-3 8 -8 11 -8 8 3 -2 8 9 14 32 17 37 4 111 33 121 47 3 5 9 8 13 8 19 -3 26
0 24 12 -2 6 5 11 14 11 10 -1 15 2 12 8 -3 5 -1 15 6 23 25 30 51 124 57 206
l6 87 37 11 c21 6 40 19 42 29 7 24 1 660 -6 701 -17 97 -50 212 -78 269 -42
86 -126 170 -208 210 -58 29 -288 104 -358 117 -39 7 -122 17 -159 19 -42 3
-45 6 -50 68 -4 65 23 119 59 116 97 -7 178 97 179 230 1 69 -20 121 -62 156
-29 25 -31 30 -22 59 11 36 10 170 -2 208 -4 13 -13 38 -20 54 -7 17 -20 62
-30 100 -40 168 -164 285 -303 285 -29 0 -52 6 -65 18 -15 14 -39 17 -122 18
-57 0 -126 -5 -154 -13z m-205 -2611 c1 -232 0 -252 -19 -252 -10 0 -87 -34
-160 -71 -49 -25 -53 -24 -60 9 -4 15 -14 61 -23 102 -8 41 -18 86 -20 100 -4
16 9 52 38 108 47 91 35 85 128 66 29 -6 31 -4 60 58 16 36 32 77 36 92 3 15
9 24 12 21 3 -3 7 -108 8 -233z"/>
<path d="M2536 467 c3 -10 9 -15 12 -12 3 3 0 11 -7 18 -10 9 -11 8 -5 -6z"/>
<path d="M2493 451 c-10 -15 -9 -20 2 -25 9 -3 12 0 9 8 -3 8 -1 17 5 20 5 4
13 -3 16 -15 4 -11 9 -18 12 -16 6 7 -15 47 -25 47 -4 0 -13 -9 -19 -19z"/>
<path d="M2625 440 c-3 -6 1 -7 9 -4 18 7 21 14 7 14 -6 0 -13 -4 -16 -10z"/>
<path d="M2680 440 c-8 -5 -10 -10 -5 -10 6 0 17 5 25 10 8 5 11 10 5 10 -5 0
-17 -5 -25 -10z"/>
<path d="M2486 398 c3 -5 10 -6 15 -3 13 9 11 12 -6 12 -8 0 -12 -4 -9 -9z"/>
</g>
</svg>
