<svg width="42" height="23" viewBox="0 0 42 23" fill="white" xmlns="http://www.w3.org/2000/svg">
<path id="Vector" fill-rule="evenodd" clip-rule="evenodd" d="M1.14416 0.825375C1.28931 0.679865 1.46173 0.564418 1.65156 0.485648C1.84139 0.406878 2.04489 0.366333 2.25041 0.366333C2.45594 0.366333 2.65944 0.406878 2.84927 0.485648C3.0391 0.564418 3.21152 0.679865 3.35666 0.825375L21.0004 18.4723L38.6442 0.825375C38.7894 0.6801 38.9619 0.564862 39.1517 0.48624C39.3415 0.407618 39.545 0.367151 39.7504 0.367151C39.9559 0.367151 40.1593 0.407618 40.3491 0.48624C40.5389 0.564862 40.7114 0.6801 40.8567 0.825375C41.0019 0.97065 41.1172 1.14312 41.1958 1.33293C41.2744 1.52274 41.3149 1.72618 41.3149 1.93163C41.3149 2.13708 41.2744 2.34051 41.1958 2.53032C41.1172 2.72013 41.0019 2.8926 40.8567 3.03788L22.1067 21.7879C21.9615 21.9334 21.7891 22.0488 21.5993 22.1276C21.4094 22.2064 21.2059 22.2469 21.0004 22.2469C20.7949 22.2469 20.5914 22.2064 20.4016 22.1276C20.2117 22.0488 20.0393 21.9334 19.8942 21.7879L1.14416 3.03788C0.998653 2.89273 0.883206 2.72031 0.804436 2.53048C0.725666 2.34065 0.68512 2.13715 0.68512 1.93163C0.68512 1.7261 0.725666 1.5226 0.804436 1.33277C0.883206 1.14294 0.998653 0.970518 1.14416 0.825375Z" fill="white"/>
</svg>
