<svg width="1920" height="1080" viewBox="0 0 1920 1080" fill="none" xmlns="http://www.w3.org/2000/svg">
<path d="M837.173 747.4C839.819 746.108 838.036 737.015 833.191 727.088C828.346 717.162 822.274 710.161 819.629 711.452C816.983 712.744 818.766 721.837 823.611 731.764C828.455 741.69 834.527 748.691 837.173 747.4Z" stroke="white" stroke-width="0.5" stroke-miterlimit="10"/>
<path d="M830.084 734.536C840.01 729.691 847.011 723.619 845.719 720.974C844.428 718.328 835.334 720.111 825.408 724.956C815.481 729.8 808.481 735.872 809.772 738.518C811.063 741.164 820.157 739.381 830.084 734.536Z" stroke="white" stroke-width="0.5" stroke-miterlimit="10"/>
<path d="M1695.11 302.824C1697.97 303.535 1702.45 295.423 1705.12 284.705C1707.79 273.986 1707.64 264.721 1704.78 264.009C1701.92 263.298 1697.44 271.41 1694.78 282.128C1692.11 292.847 1692.26 302.112 1695.11 302.824Z" stroke="white" stroke-width="0.5" stroke-miterlimit="10"/>
<path d="M1697.95 288.413C1708.67 291.082 1717.94 290.93 1718.65 288.074C1719.36 285.217 1711.25 280.737 1700.53 278.068C1689.81 275.399 1680.54 275.551 1679.83 278.407C1679.12 281.264 1687.23 285.743 1697.95 288.413Z" stroke="white" stroke-width="0.5" stroke-miterlimit="10"/>
<path d="M575.313 922.358L560.598 959.553" stroke="white" stroke-width="0.5" stroke-miterlimit="10"/>
<path d="M586.563 948.285L549.368 933.57" stroke="white" stroke-width="0.5" stroke-miterlimit="10"/>
<path d="M1267.55 327.619L1279.78 365.704" stroke="white" stroke-width="0.5" stroke-miterlimit="10"/>
<path d="M1292.7 340.519L1254.61 352.748" stroke="white" stroke-width="0.5" stroke-miterlimit="10"/>
<path d="M249.183 779.834L241.951 793.676L241.801 793.969C241.552 794.45 241.531 795.042 241.726 795.544C241.779 795.701 241.876 795.847 241.969 795.961L251.805 809.053L237.353 801.389C237.185 801.29 237.008 801.232 236.804 801.21C236.331 801.12 235.831 801.224 235.421 801.513L235.062 801.751L221.969 811.171L229.875 796.865C229.998 796.66 230.053 796.431 230.075 796.206C230.145 795.739 230.034 795.234 229.715 794.832L229.134 794.06L220.2 782.017L233.985 789.248L234.347 789.429C234.941 789.753 235.669 789.709 236.211 789.332C236.235 789.316 236.259 789.3 236.283 789.284L249.172 779.842L249.183 779.834Z" fill="url(#paint0_radial_96_4)"/>
<path d="M1232.47 990.15L1217.81 995.508L1217.5 995.623C1216.99 995.81 1216.57 996.234 1216.38 996.736C1216.31 996.889 1216.29 997.062 1216.28 997.208L1214.73 1013.51L1209.21 998.11C1209.15 997.924 1209.06 997.762 1208.93 997.608C1208.64 997.223 1208.2 996.963 1207.7 996.901L1207.27 996.835L1191.25 994.977L1206.73 989.729C1206.96 989.661 1207.16 989.529 1207.32 989.377C1207.69 989.079 1207.95 988.631 1207.98 988.119L1208.07 987.158L1209.58 972.239L1214.9 986.869L1215.05 987.246C1215.27 987.886 1215.83 988.344 1216.49 988.43C1216.52 988.435 1216.55 988.439 1216.57 988.443L1232.46 990.148L1232.47 990.15Z" fill="url(#paint1_radial_96_4)"/>
<path d="M1783.04 577.758L1794.66 589.243C1795.18 589.751 1795.97 589.91 1796.66 589.653L1811.58 583.971L1800.61 595.565C1800.12 596.084 1799.97 596.807 1800.22 597.469L1805.81 612.439L1794.23 601.512C1793.7 601.025 1792.93 600.876 1792.26 601.128L1776.99 607.043L1788.29 595.222C1788.78 594.718 1788.93 593.98 1788.7 593.328L1783.06 577.753L1783.04 577.758Z" stroke="white" stroke-miterlimit="10"/>
<path d="M675.705 324.302L673.769 340.526C673.685 341.244 674.044 341.966 674.671 342.353L688.313 350.644L672.427 349.098C671.721 349.036 671.056 349.358 670.686 349.962L662.298 363.563L663.818 347.713C663.879 346.999 663.525 346.301 662.911 345.923L648.872 337.501L665.142 339.168C665.838 339.244 666.513 338.908 666.887 338.328L675.719 324.312L675.705 324.302Z" stroke="white" stroke-miterlimit="10"/>
<path d="M120.5 542C127.404 542 133 536.404 133 529.5C133 522.596 127.404 517 120.5 517C113.596 517 108 522.596 108 529.5C108 536.404 113.596 542 120.5 542Z" stroke="white" stroke-width="0.5" stroke-miterlimit="10"/>
<path d="M1701.5 826C1708.4 826 1714 820.404 1714 813.5C1714 806.596 1708.4 801 1701.5 801C1694.6 801 1689 806.596 1689 813.5C1689 820.404 1694.6 826 1701.5 826Z" stroke="white" stroke-width="0.5" stroke-miterlimit="10"/>
<path d="M158.468 282.7L173.968 319.824" stroke="white" stroke-width="0.5" stroke-miterlimit="10"/>
<path d="M184.656 293.549L147.744 308.96" stroke="white" stroke-width="0.5" stroke-miterlimit="10"/>
<path d="M171.17 288.229L161.241 314.305" stroke="white" stroke-width="0.5" stroke-miterlimit="10"/>
<path d="M179.381 306.643L153.055 295.881" stroke="white" stroke-width="0.5" stroke-miterlimit="10"/>
<path d="M1002.63 273.179L1041.23 284.499" stroke="white" stroke-width="0.5" stroke-miterlimit="10"/>
<path d="M1027.54 259.656L1016.29 298.04" stroke="white" stroke-width="0.5" stroke-miterlimit="10"/>
<path d="M1014.92 266.788L1028.94 290.916" stroke="white" stroke-width="0.5" stroke-miterlimit="10"/>
<path d="M1034.4 271.996L1009.47 285.681" stroke="white" stroke-width="0.5" stroke-miterlimit="10"/>
<path d="M1619.63 959.179L1658.23 970.499" stroke="white" stroke-width="0.5" stroke-miterlimit="10"/>
<path d="M1644.54 945.656L1633.29 984.04" stroke="white" stroke-width="0.5" stroke-miterlimit="10"/>
<path d="M1631.92 952.788L1645.94 976.916" stroke="white" stroke-width="0.5" stroke-miterlimit="10"/>
<path d="M1651.4 957.996L1626.47 971.681" stroke="white" stroke-width="0.5" stroke-miterlimit="10"/>
<defs>
<radialGradient id="paint0_radial_96_4" cx="0" cy="0" r="1" gradientUnits="userSpaceOnUse" gradientTransform="translate(235.977 795.651) rotate(-68.831) scale(97.1866 97.7758)">
<stop stop-color="white"/>
<stop offset="0.71" stop-color="#1D1D1B"/>
</radialGradient>
<radialGradient id="paint1_radial_96_4" cx="0" cy="0" r="1" gradientUnits="userSpaceOnUse" gradientTransform="translate(1212.06 992.943) rotate(-26.4816) scale(97.1866 97.7758)">
<stop stop-color="white"/>
<stop offset="0.71" stop-color="#1D1D1B"/>
</radialGradient>
</defs>
</svg>
